<svg xmlns="http://www.w3.org/2000/svg" viewBox="0 0 120 140" role="img" aria-label="붕어빵 가게 마스코트">
  <defs>
    <linearGradient id="hat" x1="26" y1="5" x2="96" y2="68" gradientUnits="userSpaceOnUse">
      <stop stop-color="#ffcf4d"/>
      <stop offset="1" stop-color="#ff6b73"/>
    </linearGradient>
    <linearGradient id="bread" x1="31" y1="63" x2="90" y2="107" gradientUnits="userSpaceOnUse">
      <stop stop-color="#ffe68e"/>
      <stop offset=".55" stop-color="#f5a536"/>
      <stop offset="1" stop-color="#b45b25"/>
    </linearGradient>
  </defs>
  <ellipse cx="60" cy="125" rx="38" ry="10" fill="#33405f" opacity=".16"/>
  <circle cx="60" cy="58" r="39" fill="#ffe8d0"/>
  <path d="M24 47c3-25 20-38 38-38 22 0 37 16 39 39-21-8-55-8-77-1Z" fill="url(#hat)"/>
  <path d="M27 48c16-9 52-9 70 0" fill="none" stroke="#fff7e8" stroke-width="9" stroke-linecap="round"/>
  <circle cx="44" cy="60" r="5" fill="#342f3c"/>
  <circle cx="76" cy="60" r="5" fill="#342f3c"/>
  <path d="M48 78c7 6 18 6 25 0" fill="none" stroke="#342f3c" stroke-width="5" stroke-linecap="round"/>
  <circle cx="32" cy="70" r="8" fill="#ff9da7" opacity=".55"/>
  <circle cx="88" cy="70" r="8" fill="#ff9da7" opacity=".55"/>
  <path d="M28 99c6-13 19-21 34-18 10 2 17 8 21 18-5 12-18 20-33 18-11-1-19-7-22-18Z" fill="url(#bread)"/>
  <path d="M65 99 86 84l-6 15 6 14-21-14Z" fill="#d97927"/>
  <circle cx="46" cy="94" r="3" fill="#5d2e19"/>
  <path d="M52 91c5 5 5 12 0 17M61 89c5 6 5 15 0 20" fill="none" stroke="#8d431c" stroke-width="3.5" stroke-linecap="round" opacity=".42"/>
</svg>
