<svg xmlns="http://www.w3.org/2000/svg" viewBox="0 0 96 96" role="img" aria-label="붕어빵 가게 마크">
  <defs>
    <linearGradient id="badge" x1="12" y1="10" x2="84" y2="88" gradientUnits="userSpaceOnUse">
      <stop stop-color="#ff6b73"/>
      <stop offset=".5" stop-color="#ffbd43"/>
      <stop offset="1" stop-color="#35bdd0"/>
    </linearGradient>
    <linearGradient id="bread" x1="24" y1="30" x2="75" y2="65" gradientUnits="userSpaceOnUse">
      <stop stop-color="#ffe98f"/>
      <stop offset=".55" stop-color="#f6a82f"/>
      <stop offset="1" stop-color="#b95c25"/>
    </linearGradient>
  </defs>
  <rect x="7" y="8" width="82" height="80" rx="24" fill="url(#badge)"/>
  <path d="M19 24h58l7 19H12l7-19Z" fill="#fff8e8"/>
  <path d="M16 43h68v11c0 8-7 14-15 14H31c-8 0-15-6-15-14V43Z" fill="#ff5a6f"/>
  <path d="M24 54c5-15 21-25 39-20 11 3 18 10 22 20-5 14-20 23-38 20-12-2-21-9-23-20Z" fill="url(#bread)"/>
  <path d="M64 54 84 39l-6 15 6 15-20-15Z" fill="#e27c24"/>
  <circle cx="42" cy="48" r="3.5" fill="#5c2b18"/>
  <path d="M49 44c6 6 6 15 0 20M59 42c6 7 6 18 0 24" fill="none" stroke="#8a421c" stroke-width="4" stroke-linecap="round" opacity=".4"/>
  <path d="M24 20c11-10 32-11 44-2" fill="none" stroke="#fff" stroke-width="5" stroke-linecap="round" opacity=".7"/>
</svg>
